<svg width="26" height="26" viewBox="0 0 26 26" fill="none" xmlns="http://www.w3.org/2000/svg">
<circle cx="13" cy="13" r="12" fill="#5D29EA" stroke="#5D29EA" stroke-width="2"/>
<path d="M11.126 18C10.998 18.0003 10.8712 17.9748 10.7528 17.9251C10.6345 17.8754 10.5269 17.8024 10.4364 17.7103L6.2983 13.5006C6.20506 13.4091 6.13067 13.2997 6.07947 13.1787C6.02826 13.0577 6.00126 12.9275 6.00004 12.7958C5.99883 12.6641 6.02342 12.5334 6.07238 12.4114C6.12135 12.2895 6.1937 12.1786 6.28523 12.0854C6.37676 11.9922 6.48562 11.9184 6.60547 11.8685C6.72532 11.8185 6.85375 11.7933 6.98328 11.7944C7.11281 11.7954 7.24083 11.8227 7.35988 11.8746C7.47893 11.9265 7.58662 12.002 7.67668 12.0967L11.1251 15.604L17.3341 9.2909C17.517 9.10473 17.7652 9.00009 18.024 9C18.2827 8.99991 18.5309 9.10437 18.714 9.29041C18.897 9.47644 18.9999 9.72881 19 9.992C19.0001 10.2552 18.8974 10.5076 18.7145 10.6938L11.8157 17.7103C11.7252 17.8024 11.6176 17.8754 11.4993 17.9251C11.3809 17.9748 11.2541 18.0003 11.126 18Z" fill="white"/>
</svg>
