<svg width="15" height="15" viewBox="0 0 15 15" fill="none" xmlns="http://www.w3.org/2000/svg">
<path d="M7.5 13.75C4.04812 13.75 1.25 10.9519 1.25 7.5C1.25 4.04813 4.04812 1.25 7.5 1.25C10.9519 1.25 13.75 4.04813 13.75 7.5C13.75 10.9519 10.9519 13.75 7.5 13.75Z" fill="#4A4A4A"/>
<path d="M7.24299 10.365C7.17736 10.3651 7.11235 10.3523 7.05168 10.3273C6.99102 10.3022 6.9359 10.2654 6.88949 10.219L4.76849 8.09751C4.72071 8.05142 4.68258 7.99627 4.65633 7.93529C4.63008 7.87431 4.61625 7.80871 4.61562 7.74232C4.615 7.67593 4.6276 7.61008 4.6527 7.54862C4.6778 7.48715 4.71488 7.4313 4.7618 7.38432C4.80871 7.33734 4.86451 7.30018 4.92594 7.27499C4.98737 7.24981 5.0532 7.23711 5.11959 7.23764C5.18598 7.23817 5.2516 7.25191 5.31262 7.27808C5.37364 7.30424 5.42884 7.34229 5.47499 7.39001L7.24249 9.15751L10.425 5.97601C10.5187 5.88219 10.6459 5.82945 10.7786 5.82941C10.9112 5.82936 11.0384 5.882 11.1322 5.97576C11.2261 6.06951 11.2788 6.1967 11.2788 6.32933C11.2789 6.46197 11.2262 6.58919 11.1325 6.68301L7.59649 10.219C7.55008 10.2654 7.49496 10.3022 7.4343 10.3273C7.37364 10.3523 7.30863 10.3651 7.24299 10.365Z" fill="white"/>
</svg>
