<svg width="17" height="17" viewBox="0 0 17 17" fill="none" xmlns="http://www.w3.org/2000/svg">
<circle cx="8.5" cy="8.5" r="8.5" fill="#35E285"/>
<circle cx="8.5" cy="8.5" r="8.5" stroke="white"/>
<path d="M7.5488 12.4012C7.46015 12.4014 7.37234 12.3833 7.2904 12.348C7.20847 12.3126 7.13402 12.2607 7.07133 12.1952L4.20651 9.20105C4.14197 9.136 4.09047 9.05817 4.05502 8.9721C4.01956 8.88603 4.00087 8.79345 4.00003 8.69975C3.99919 8.60606 4.01621 8.51312 4.05011 8.42638C4.08401 8.33963 4.1341 8.2608 4.19747 8.1945C4.26083 8.1282 4.3362 8.07574 4.41917 8.0402C4.50214 8.00466 4.59106 7.98674 4.68073 7.98749C4.7704 7.98823 4.85904 8.00763 4.94146 8.04455C5.02388 8.08147 5.09843 8.13518 5.16078 8.20253L7.54813 10.6971L11.8467 6.2069C11.9733 6.07449 12.1451 6.00007 12.3243 6C12.5034 5.99993 12.6753 6.07423 12.802 6.20655C12.9287 6.33887 12.9999 6.51837 13 6.70556C13.0001 6.89275 12.929 7.0723 12.8023 7.20472L8.02627 12.1952C7.96359 12.2607 7.88914 12.3126 7.8072 12.348C7.72527 12.3833 7.63745 12.4014 7.5488 12.4012Z" fill="white"/>
</svg>
