<svg width="17" height="17" viewBox="0 0 17 17" fill="none" xmlns="http://www.w3.org/2000/svg">
<circle cx="8.5" cy="8.5" r="8.5" fill="#35E285"/>
<circle cx="8.5" cy="8.5" r="8.5" stroke="white"/>
<path d="M7.5488 12.1169C7.46015 12.1171 7.37234 12.0998 7.2904 12.066C7.20847 12.0322 7.13402 11.9826 7.07133 11.92L4.20651 9.05888C4.14197 8.99672 4.09047 8.92235 4.05502 8.8401C4.01956 8.75786 4.00087 8.66938 4.00003 8.57985C3.99919 8.49031 4.01621 8.40151 4.05011 8.31861C4.08401 8.23572 4.1341 8.16039 4.19747 8.09704C4.26083 8.03368 4.3362 7.98355 4.41917 7.94959C4.50214 7.91562 4.59106 7.8985 4.68073 7.89921C4.7704 7.89993 4.85904 7.91847 4.94146 7.95375C5.02388 7.98903 5.09843 8.04035 5.16078 8.10471L7.54813 10.4884L11.8467 6.19771C11.9733 6.07118 12.1451 6.00006 12.3243 6C12.5034 5.99994 12.6753 6.07094 12.802 6.19738C12.9287 6.32382 12.9999 6.49535 13 6.67422C13.0001 6.8531 12.929 7.02468 12.8023 7.15121L8.02627 11.92C7.96359 11.9826 7.88914 12.0322 7.8072 12.066C7.72527 12.0998 7.63745 12.1171 7.5488 12.1169Z" fill="white"/>
</svg>
